<?xml version="1.0" encoding="UTF-8"?>
<svg version="1.1" xmlns="http://www.w3.org/2000/svg" width="1024" height="1024">
<path d="M0 0 C2.1269132 0.00564374 4.25381843 0.00846195 6.3807373 0.0110817 C26.60242912 0.04729448 46.54484214 0.43815241 66.59460449 3.31805801 C67.86819824 3.48966446 69.14179199 3.6612709 70.45397949 3.83807755 C149.21057376 14.48099076 226.30844872 42.60209282 291.59460449 88.31805801 C292.15824707 88.71122208 292.72188965 89.10438614 293.3026123 89.50946426 C297.43452011 92.39878034 301.52350345 95.34381704 305.59460449 98.31805801 C306.23542969 98.78469864 306.87625488 99.25133926 307.53649902 99.73212051 C316.11506398 106.00002438 324.35646236 112.52628341 332.35632324 119.51727676 C335.24478792 122.03732788 338.21729523 124.43425023 341.21960449 126.81805801 C345.90183391 130.6107328 350.12105318 134.72534394 354.32995605 139.02386856 C356.94953409 141.69493602 359.59037312 144.24245353 362.46960449 146.63055801 C368.43133748 151.71228467 373.58256707 157.67412089 378.86804199 163.43866348 C380.44653885 165.15688588 382.03389808 166.86622108 383.62585449 168.57196426 C389.55606093 174.94486107 395.17478001 181.50640785 400.59460449 188.31805801 C401.2123877 189.08641983 401.2123877 189.08641983 401.84265137 189.87030411 C435.43324024 231.65649154 462.09671284 278.40317342 481.59460449 328.31805801 C482.00162598 329.35720352 482.40864746 330.39634903 482.82800293 331.4669838 C496.2652838 366.19779316 505.07023428 402.57047832 510.40710449 439.38055801 C510.50665436 440.05989395 510.60620422 440.73922989 510.70877075 441.43915176 C513.98869105 464.15060241 514.97447213 486.79297052 514.91266251 509.72345352 C514.90701876 511.85036673 514.90420056 513.97727195 514.90158081 516.10419083 C514.86536802 536.32588264 514.4745101 556.26829566 511.59460449 576.31805801 C511.42299805 577.59165176 511.2513916 578.86524551 511.07458496 580.17743301 C500.43167175 658.93402728 472.31056969 736.03190224 426.59460449 801.31805801 C426.20144043 801.88170059 425.80827637 802.44534317 425.40319824 803.02606583 C422.51388216 807.15797363 419.56884547 811.24695697 416.59460449 815.31805801 C416.12796387 815.95888321 415.66132324 816.5997084 415.18054199 817.25995255 C408.91263812 825.8385175 402.3863791 834.07991588 395.39538574 842.07977676 C392.87533462 844.96824145 390.47841227 847.94074875 388.09460449 850.94305801 C384.30192971 855.62528743 380.18731857 859.8445067 375.88879395 864.05340958 C373.21772648 866.67298761 370.67020898 869.31382664 368.28210449 872.19305801 C363.20037783 878.154791 357.23854162 883.30602059 351.47399902 888.59149551 C349.75577663 890.16999237 348.04644143 891.75735161 346.34069824 893.34930801 C339.96780143 899.27951445 333.40625465 904.89823353 326.59460449 910.31805801 C326.08236328 910.72991348 325.57012207 911.14176895 325.0423584 911.56610489 C283.25617097 945.15669376 236.50948908 971.82016636 186.59460449 991.31805801 C185.55545898 991.7250795 184.51631348 992.13210098 183.44567871 992.55145645 C148.71486934 1005.98873733 112.34218419 1014.7936878 75.53210449 1020.13055801 C74.85276855 1020.23010788 74.17343262 1020.32965775 73.47351074 1020.43222427 C50.7620601 1023.71214457 28.11969199 1024.69792565 5.18920898 1024.63611603 C3.06229578 1024.63047228 0.93539056 1024.62765408 -1.19152832 1024.62503433 C-21.41322013 1024.58882155 -41.35563316 1024.19796362 -61.40539551 1021.31805801 C-63.31578613 1021.06064835 -63.31578613 1021.06064835 -65.26477051 1020.79803848 C-144.02136478 1010.15512527 -221.11923973 982.03402321 -286.40539551 936.31805801 C-286.96903809 935.92489395 -287.53268066 935.53172989 -288.11340332 935.12665176 C-292.24531112 932.23733568 -296.33429446 929.29229899 -300.40539551 926.31805801 C-301.0462207 925.85141739 -301.6870459 925.38477676 -302.34729004 924.90399551 C-310.92585499 918.63609164 -319.16725338 912.10983262 -327.16711426 905.11883926 C-330.05557894 902.59878815 -333.02808625 900.2018658 -336.03039551 897.81805801 C-340.71262493 894.02538323 -344.9318442 889.91077209 -349.14074707 885.61224747 C-351.7603251 882.94118 -354.40116414 880.3936625 -357.28039551 878.00555801 C-363.24212849 872.92383135 -368.39335808 866.96199514 -373.67883301 861.19745255 C-375.25732986 859.47923015 -376.8446891 857.76989495 -378.43664551 856.06415176 C-384.36685194 849.69125496 -389.98557102 843.12970818 -395.40539551 836.31805801 C-395.81725098 835.8058168 -396.22910645 835.29357559 -396.65344238 834.76581192 C-430.24403125 792.97962449 -456.90750386 746.23294261 -476.40539551 696.31805801 C-476.81241699 695.27891251 -477.21943848 694.239767 -477.63879395 693.16913223 C-491.07607482 658.43832287 -499.8810253 622.06563771 -505.21789551 585.25555801 C-505.31744537 584.57622208 -505.41699524 583.89688614 -505.51956177 583.19696426 C-508.79948207 560.48551362 -509.78526314 537.84314551 -509.72345352 514.91266251 C-509.71780978 512.7857493 -509.71499157 510.65884408 -509.71237183 508.5319252 C-509.67615904 488.31023339 -509.28530111 468.36782037 -506.40539551 448.31805801 C-506.23378906 447.04446426 -506.06218262 445.77087051 -505.88537598 444.45868301 C-495.24246277 365.70208874 -467.1213607 288.60421379 -421.40539551 223.31805801 C-421.01223145 222.75441544 -420.61906738 222.19077286 -420.21398926 221.6100502 C-417.32467318 217.4781424 -414.37963649 213.38915906 -411.40539551 209.31805801 C-410.93875488 208.67723282 -410.47211426 208.03640762 -409.99133301 207.37616348 C-403.72342914 198.79759853 -397.19717011 190.55620014 -390.20617676 182.55633926 C-387.68612564 179.66787458 -385.28920329 176.69536728 -382.90539551 173.69305801 C-379.11272072 169.0108286 -374.99810958 164.79160933 -370.69958496 160.58270645 C-368.0285175 157.96312842 -365.48099999 155.32228938 -363.09289551 152.44305801 C-358.01116885 146.48132503 -352.04933263 141.33009544 -346.28479004 136.04462051 C-344.56656764 134.46612366 -342.85723244 132.87876442 -341.15148926 131.28680801 C-334.77859245 125.35660158 -328.21704567 119.7378825 -321.40539551 114.31805801 C-320.8931543 113.90620255 -320.38091309 113.49434708 -319.85314941 113.07001114 C-278.06696198 79.47942227 -231.3202801 52.81594967 -181.40539551 33.31805801 C-180.36625 32.91103653 -179.32710449 32.50401505 -178.25646973 32.08465958 C-143.52566036 18.6473787 -107.1529752 9.84242823 -70.34289551 4.50555801 C-69.66355957 4.40600815 -68.98422363 4.30645828 -68.28430176 4.20389175 C-45.57285111 0.92397146 -22.930483 -0.06180962 0 0 Z " fill="#254982" transform="translate(509.4053955078125,-0.3180580139160156)"/>
<path d="M0 0 C4.58671304 -0.03856513 9.17345523 -0.06503477 13.76026142 -0.08975655 C15.8654374 -0.10406576 17.97058646 -0.1237278 20.07565057 -0.14972287 C71.10544497 -0.77188694 118.80126389 12.50060058 156.31447756 48.08715373 C157.05649416 48.78034709 157.05649416 48.78034709 157.813501 49.48754436 C182.92711454 73.07115929 197.38577094 102.87403964 205.31447756 136.08715373 C205.49381838 136.7892094 205.6731592 137.49126506 205.85793459 138.21459514 C208.39593532 148.30358909 208.59399343 158.35960518 208.62697756 168.71215373 C208.63261721 169.99855754 208.63825686 171.28496135 208.64406741 172.61034709 C208.39796221 205.31522516 198.83361195 238.92703782 177.31447756 264.08715373 C176.62740725 264.89539592 175.94033694 265.70363811 175.23244631 266.53637248 C164.9504854 278.29490221 151.48124877 291.03156333 136.31447756 296.08715373 C137.31865725 296.57184123 138.32283694 297.05652873 139.35744631 297.55590373 C178.16833563 316.48641499 204.8855369 344.55226747 219.46242678 385.52855998 C225.22131397 402.82172267 227.67907846 420.26388279 227.63015139 438.44481975 C227.62699444 440.88660104 227.65054319 443.32716177 227.67580569 445.76879436 C227.73761086 460.71332376 225.40351363 474.68524237 221.12697756 489.02465373 C220.82582034 490.04043498 220.52466311 491.05621623 220.21437991 492.10277873 C206.77300357 536.00989402 176.07631737 570.21890484 135.85744631 591.78051311 C108.86258794 605.6511431 79.95499534 612.24891233 49.6668793 612.22759563 C48.3182501 612.23018529 46.96962167 612.23320011 45.62099427 612.23659903 C41.94419293 612.24459991 38.26741118 612.24645467 34.59060216 612.2471965 C30.61457306 612.24905889 26.63855385 612.25661142 22.66253054 612.26333171 C13.98770585 612.27685995 5.31288582 612.28292934 -3.36194766 612.28734237 C-8.77811519 612.29011061 -14.19428095 612.29434867 -19.61044729 612.29884654 C-34.61014955 612.3110253 -49.60985041 612.3213317 -64.60955751 612.32472163 C-65.56764171 612.3249412 -66.52572592 612.32516077 -67.51284298 612.32538699 C-68.95332009 612.3257144 -68.95332009 612.3257144 -70.42289776 612.32604843 C-72.36875637 612.3264919 -74.31461499 612.32693846 -76.26047361 612.32738811 C-77.7082806 612.32772025 -77.7082806 612.32772025 -79.18533622 612.32805911 C-94.86140054 612.33201603 -110.53741862 612.34950343 -126.21346504 612.37274763 C-142.31198145 612.3964259 -158.41047459 612.40892164 -174.50900871 612.41008955 C-183.54656659 612.41100758 -192.58406401 612.41679327 -201.62160528 612.43490916 C-209.30720812 612.45026165 -216.99273175 612.45545897 -224.678347 612.44717106 C-228.60167218 612.44324907 -232.52483757 612.4442695 -236.44814336 612.45822841 C-240.0346396 612.4708732 -243.62085439 612.46985402 -247.20734971 612.4576377 C-249.12903773 612.45472483 -251.05073019 612.46668665 -252.97238058 612.47905976 C-254.10168255 612.47246991 -255.23098452 612.46588007 -256.39450777 612.45909053 C-257.86533369 612.45998616 -257.86533369 612.45998616 -259.36587328 612.46089989 C-260.51409961 612.27589554 -260.51409961 612.27589554 -261.68552244 612.08715373 C-263.75511599 608.9827634 -263.9354796 608.33628547 -263.9350701 604.82360715 C-263.93982091 603.94703725 -263.94457172 603.07046736 -263.9494665 602.16733474 C-263.94201423 600.71882854 -263.94201423 600.71882854 -263.93441141 599.2410596 C-263.93701869 598.21305484 -263.93962598 597.18505008 -263.94231227 596.12589365 C-263.94865835 592.64688559 -263.94062067 589.16805488 -263.9327606 585.68905193 C-263.93434736 583.18342095 -263.93680963 580.67779039 -263.94007701 578.17216104 C-263.94516965 572.7067948 -263.94399841 567.24148414 -263.93739164 561.77612048 C-263.92759446 553.64922981 -263.92920108 545.52236964 -263.93314193 537.39547546 C-263.93942517 523.72584513 -263.93623631 510.05623203 -263.92754781 496.38660365 C-263.91894348 482.84672827 -263.91402742 469.30686062 -263.91421545 455.76698238 C-263.91422309 454.92582122 -263.91423074 454.08466007 -263.91423861 453.21800919 C-263.91427952 449.80377736 -263.91434513 446.38954554 -263.91444443 442.97531371 C-263.91535112 410.92712099 -263.90539599 378.87894007 -263.89001476 346.83075145 C-263.87638776 318.3325583 -263.87015355 289.83437355 -263.87082517 261.33617717 C-263.87086558 259.5061239 -263.87090594 257.67607062 -263.87094625 255.84601735 C-263.8709666 254.94129077 -263.87098695 254.0365642 -263.87100792 253.10442167 C-263.87110871 248.55053629 -263.87119929 243.99665091 -263.87127817 239.44276553 C-263.87129488 238.54443261 -263.87131159 237.64609969 -263.87132881 236.72054456 C-263.87169364 212.93444073 -263.86715906 189.14833796 -263.8609516 165.36223501 C-263.86073133 164.5165817 -263.86051106 163.6709284 -263.86028411 162.79964923 C-263.85939584 159.39878984 -263.85850746 155.99793046 -263.85759316 152.59707108 C-263.85442858 140.74542747 -263.8529233 128.89378468 -263.85248167 117.04214068 C-263.85188563 101.77377456 -263.84791227 86.50541539 -263.83805021 71.23705225 C-263.83292016 63.15439056 -263.83053083 55.07173906 -263.83204639 46.98907582 C-263.83286284 40.97065936 -263.82848845 34.95225894 -263.82199589 28.93384542 C-263.82017106 26.48642406 -263.82006331 24.03900075 -263.82176318 21.5915793 C-263.823805 18.28821829 -263.81980601 14.98492101 -263.81415689 11.68156558 C-263.81621221 10.71121246 -263.81826753 9.74085933 -263.82038513 8.74110156 C-263.81762538 7.8695387 -263.81486564 6.99797585 -263.81202227 6.10000199 C-263.81173077 5.34338728 -263.81143927 4.58677257 -263.81113894 3.80723014 C-263.68552244 2.08715373 -263.68552244 2.08715373 -262.68552244 1.08715373 C-259.56392895 0.97662309 -256.46399373 0.93217465 -253.34155881 0.92893535 C-251.85067017 0.92152838 -251.85067017 0.92152838 -250.32966256 0.91397178 C-246.9692804 0.89850789 -243.60891749 0.89021086 -240.24851072 0.88183147 C-237.84838285 0.87225682 -235.44825668 0.86224699 -233.0481323 0.85183269 C-227.17505221 0.8274906 -221.30196701 0.80777598 -215.42886414 0.79007994 C-208.54523392 0.76910969 -201.66162805 0.74264838 -194.77801822 0.71590848 C-182.43388509 0.66811982 -170.08974017 0.62493137 -157.74558103 0.58446819 C-145.87838245 0.54556102 -134.0111968 0.50415534 -122.14401853 0.45946819 C-121.42039393 0.45674391 -120.69676933 0.45401964 -119.95121671 0.45121282 C-117.03880347 0.44024156 -114.12639027 0.42926253 -111.21397711 0.41827067 C-98.41118168 0.37001708 -85.60837839 0.32390017 -72.805574 0.27809426 C-70.77365355 0.27081135 -68.74173326 0.26348593 -66.709813 0.25615126 C-62.75966955 0.24193948 -58.80952553 0.22790136 -54.85938108 0.21396953 C-53.58100673 0.20943788 -52.30263238 0.20490624 -50.98551941 0.20023727 C-44.72123897 0.17861082 -38.45696959 0.15973033 -32.19266546 0.14650184 C-29.76908079 0.14129771 -27.34549617 0.13607208 -24.9219116 0.13082439 C-23.73875816 0.12832787 -22.55560473 0.12583135 -21.33659816 0.12325919 C-14.22409998 0.10530213 -7.11224084 0.06272926 0 0 Z " fill="#FBFBFB" transform="translate(535.6855224370956,207.91284626722336)"/>
<path d="M0 0 C46.67091363 -0.16121214 46.67091363 -0.16121214 66.3046875 -0.1953125 C79.83404643 -0.21900002 93.36330535 -0.24676968 106.89257812 -0.30175781 C116.74811243 -0.34179516 126.60356519 -0.36747283 136.45917857 -0.37635398 C141.67116501 -0.38154026 146.8829183 -0.39361327 152.09482956 -0.42292023 C157.01470161 -0.45035717 161.93424762 -0.45838873 166.85418892 -0.45243073 C168.64626025 -0.45351846 170.43834413 -0.46130207 172.23034859 -0.4768219 C186.87483355 -0.59727839 202.40961788 0.50353847 215.5 7.75 C216.15033203 8.09361572 216.80066406 8.43723145 217.47070312 8.79125977 C235.97205961 18.87560142 246.8427969 34.97327296 253.08984375 54.625 C258.62532939 75.15143601 255.91937884 98.11858423 245.98046875 116.74609375 C235.19735265 134.46273224 219.41311158 145.40593326 199.7890625 151.08984375 C193.15083349 152.68438742 186.70828557 153.1482542 179.90075684 153.12025452 C179.12621359 153.12110894 178.35167035 153.12196337 177.5536561 153.12284368 C174.98040802 153.12447961 172.40722637 153.11900827 169.83398438 153.11352539 C167.98061118 153.11324309 166.12723788 153.1134021 164.27386475 153.1139679 C159.25795967 153.11425418 154.24207863 153.10838478 149.22617912 153.10139394 C143.97846474 153.09513224 138.73074977 153.09455437 133.48303223 153.09336853 C123.55265612 153.09026352 113.62229105 153.08206131 103.6919198 153.07201904 C90.26811133 153.05873935 76.84429983 153.05335129 63.42048645 153.04751682 C42.28031603 153.03812087 21.14016891 153.0181964 0 153 C0 102.51 0 52.02 0 0 Z " fill="#244881" transform="translate(389,563)"/>
<path d="M0 0 C42.65852266 -0.16121214 42.65852266 -0.16121214 60.6171875 -0.1953125 C72.98769815 -0.21899144 85.35809934 -0.24673665 97.72851562 -0.30175781 C106.74024661 -0.34182086 115.75188827 -0.36747881 124.76370585 -0.37635398 C129.52857128 -0.381536 134.29318133 -0.3935809 139.05796432 -0.42292023 C143.55760711 -0.45039821 148.05689329 -0.45838081 152.55661201 -0.45243073 C154.19387956 -0.45351668 155.83116108 -0.46127543 157.46835518 -0.4768219 C171.70997939 -0.60523833 186.88068198 0.75346821 199.5625 7.8125 C200.21613525 8.15941895 200.86977051 8.50633789 201.54321289 8.86376953 C219.48646295 18.63478007 230.76536654 34.27888438 236.54199219 53.58251953 C242.13656621 73.2034186 238.65851158 91.76319853 229.06640625 109.4375 C220.01998892 125.36787772 205.76513552 135.56151223 188.625 141.375 C175.31212384 144.95214654 161.62119728 145.29521047 147.92358398 145.22705078 C146.29548144 145.22648468 144.66737838 145.2268071 143.03927612 145.22793579 C138.67880529 145.22850255 134.31844765 145.21685977 129.95800281 145.20278788 C125.37899544 145.19016584 120.79998461 145.18910108 116.22096252 145.18673706 C107.57646641 145.18055564 98.93202173 145.16419069 90.28754812 145.14403808 C78.58752445 145.11736241 66.8874864 145.10667942 55.18743992 145.09503365 C36.79158819 145.07630715 18.39584493 145.03643944 0 145 C0 97.15 0 49.3 0 0 Z " fill="#254982" transform="translate(389,316)"/>
<path d="M0 0 C36.96 0 73.92 0 112 0 C112 59.4 112 118.8 112 180 C107.38431713 176.04370039 103.17194009 172.26937748 99.125 167.8125 C98.6081665 167.24716553 98.09133301 166.68183105 97.55883789 166.09936523 C92.83622698 160.89317065 88.3678599 155.50697363 84 150 C83.15249351 148.94519216 82.30483088 147.89050975 81.45703125 146.8359375 C51.58703025 109.46573186 26.67503859 67.71169212 8.375 23.5 C7.87822754 22.30205811 7.38145508 21.10411621 6.86962891 19.86987305 C4.18195739 13.26155487 2.06808302 6.89361006 0 0 Z " fill="#254981" transform="translate(30,686)"/>
<path d="M0 0 C1.1013877 0.93013788 2.20076157 1.8626606 3.29931641 2.79614258 C3.91175201 3.31517654 4.52418762 3.83421051 5.15518188 4.36897278 C8.08955021 6.96328524 10.73211771 9.80111983 13.375 12.6875 C13.93880371 13.29980469 14.50260742 13.91210938 15.08349609 14.54296875 C19.94096163 19.85863351 24.53417829 25.35112727 29 31 C29.84600157 32.05366862 30.69237197 33.10704117 31.5390625 34.16015625 C61.52740571 71.66881297 86.43003966 113.56937364 104.8125 157.9375 C105.0773822 158.57386383 105.3422644 159.21022766 105.61517334 159.86587524 C110 170.44687671 110 170.44687671 110 174 C73.37 174 36.74 174 -1 174 C-1.13856534 62.17776989 -1.13856534 62.17776989 -0.5 25.6875 C-0.48804218 25.00354786 -0.47608437 24.31959572 -0.46376419 23.61491776 C-0.32480138 15.74294717 -0.17231545 7.87131139 0 0 Z " fill="#254981" transform="translate(881,157)"/>
<path d="M0 0 C0.03126803 13.24998885 0.05120628 26.49997905 0.0625 39.75 C0.06335602 40.74704704 0.06421204 41.74409409 0.06509399 42.77135468 C0.09819038 86.5231285 -0.39863906 130.25099179 -1 174 C-36.97 174 -72.94 174 -110 174 C-109.2113911 169.26834657 -108.4213187 166.18325448 -106.5859375 161.90625 C-106.08022217 160.72651611 -105.57450684 159.54678223 -105.0534668 158.33129883 C-104.4950526 157.05372892 -103.93553225 155.77664203 -103.375 154.5 C-103.08855621 153.84405853 -102.80211243 153.18811707 -102.50698853 152.51229858 C-89.27242064 122.28183604 -73.95839772 93.07415017 -55 66 C-54.60683594 65.43635742 -54.21367188 64.87271484 -53.80859375 64.29199219 C-50.91927767 60.16008438 -47.97424098 56.07110105 -45 52 C-44.53335938 51.3591748 -44.06671875 50.71834961 -43.5859375 50.05810547 C-37.31913243 41.48104438 -30.79387152 33.24113707 -23.8046875 25.2421875 C-21.26445689 22.33046751 -18.84422728 19.33589762 -16.4375 16.3125 C-3.2078683 0 -3.2078683 0 0 0 Z " fill="#254981" transform="translate(143,157)"/>
<path d="M0 0 C57.75 0 115.5 0 175 0 C175 17.82 175 35.64 175 54 C175.33 54.66 175.66 55.32 176 56 C117.92 56 59.84 56 0 56 C0 37.52 0 19.04 0 0 Z " fill="#254881" transform="translate(337,152)"/>
<path d="M0 0 C0.66 0 1.32 0 2 0 C2 49.5 2 99 2 150 C58.76 150 115.52 150 174 150 C174 110.4 174 70.8 174 30 C174.66 30.33 175.32 30.66 176 31 C176 70.27 176 109.54 176 150 C237.71 150 299.42 150 363 150 C363.33 150.66 363.66 151.32 364 152 C301.96 152 239.92 152 176 152 C176 184.67 176 217.34 176 251 C175.34 250.67 174.68 250.34 174 250 C173.84605289 238.10838705 173.69787248 226.21671752 173.5570364 214.32494164 C173.49145853 208.80301354 173.42390088 203.28112451 173.35180664 197.75927734 C173.28229405 192.42957003 173.21799778 187.09982288 173.15730476 181.77000809 C173.13324485 179.7374506 173.10731124 177.70491439 173.07946587 175.67240524 C173.04076116 172.82379226 173.0087424 169.97517616 172.97827148 167.12646484 C172.96532547 166.28776855 172.95237946 165.44907227 172.93904114 164.58496094 C172.90016731 160.26462669 173.12650106 156.25605869 174 152 C172.96607117 152.01252808 171.93214233 152.02505615 170.86688232 152.03796387 C157.49466951 152.19922158 144.12236968 152.35233597 130.75 152.5 C129.67484131 152.51187725 128.59968262 152.5237545 127.49194336 152.53599167 C96.32747297 152.87795122 65.16641743 153.09501582 34 153.0625 C33.17338364 153.06164398 32.34676727 153.06078796 31.49510193 153.05990601 C21.6633631 153.0489314 11.83172258 153.02608653 2 153 C2 171.15 2 189.3 2 208 C5.3 208 8.6 208 12 208 C12 208.33 12 208.66 12 209 C-70.5 209 -153 209 -238 209 C-238 208.67 -238 208.34 -238 208 C-218.2 208 -198.4 208 -178 208 C-178 189.52 -178 171.04 -178 152 C-240.04 152 -302.08 152 -366 152 C-365.505 151.01 -365.505 151.01 -365 150 C-303.29 150 -241.58 150 -178 150 C-178 110.73 -178 71.46 -178 31 C-177.01 30.505 -177.01 30.505 -176 30 C-176 69.6 -176 109.2 -176 150 C-118.25 150 -60.5 150 -1 150 C-1 138.45 -1 126.9 -1 115 C-0.93982341 105.47497328 -0.87061838 95.95050864 -0.78125 86.42578125 C-0.75869412 83.8974774 -0.73627705 81.36917231 -0.71398926 78.84086609 C-0.6561731 72.32293427 -0.59652719 65.80502058 -0.53643799 59.28710938 C-0.47496203 52.58139052 -0.41530235 45.87565555 -0.35546875 39.16992188 C-0.23871032 26.11326528 -0.12007206 13.05662652 0 0 Z M-176 152 C-176 170.48 -176 188.96 -176 208 C-117.92 208 -59.84 208 0 208 C-0.33 207.34 -0.66 206.68 -1 206 C-1 188.18 -1 170.36 -1 152 C-58.75 152 -116.5 152 -176 152 Z " fill="#325FA5" transform="translate(513,0)"/>
<path d="M0 0 C41.25 0 82.5 0 125 0 C125 4.62 125 9.24 125 14 C126.03094788 13.99555878 127.06189575 13.99111755 128.12408447 13.98654175 C137.8354802 13.94601435 147.54685878 13.91602457 157.25831985 13.89637566 C162.25118787 13.88593441 167.24398766 13.87176893 172.23681641 13.84912109 C177.05434592 13.82740495 181.87180978 13.81543394 186.68938446 13.81024551 C188.52820621 13.80654756 190.36702434 13.79932646 192.20581818 13.78853989 C194.77954399 13.77404133 197.35299779 13.77202137 199.92675781 13.77294922 C200.68848801 13.76575867 201.4502182 13.75856812 202.23503113 13.75115967 C205.98048242 13.7657894 208.82216898 13.90511662 212 16 C210.2120694 17.7879306 207.80241742 17.1198974 205.42249203 17.12442875 C204.62041097 17.12083064 203.81832991 17.11723253 202.99194336 17.11352539 C202.13937486 17.11364593 201.28680635 17.11376646 200.40840244 17.11389065 C197.63552344 17.11314141 194.8627108 17.10551268 192.08984375 17.09765625 C190.38317904 17.09618687 188.67651388 17.09516613 186.96984863 17.09460449 C180.62572557 17.08935121 174.28161214 17.07539013 167.9375 17.0625 C153.768125 17.041875 139.59875 17.02125 125 17 C125 58.25 125 99.5 125 142 C124.01 142 123.02 142 122 142 C122 100.75 122 59.5 122 17 C81.74 17 41.48 17 0 17 C0 11.39 0 5.78 0 0 Z " fill="#254982" transform="translate(390,317)"/>
<path d="M0 0 C42.65852266 -0.16121214 42.65852266 -0.16121214 60.6171875 -0.1953125 C72.98769815 -0.21899144 85.35809934 -0.24673665 97.72851562 -0.30175781 C106.74024661 -0.34182086 115.75188827 -0.36747881 124.76370585 -0.37635398 C129.52857128 -0.381536 134.29318133 -0.3935809 139.05796432 -0.42292023 C143.55760711 -0.45039821 148.05689329 -0.45838081 152.55661201 -0.45243073 C154.19387956 -0.45351668 155.83116108 -0.46127543 157.46835518 -0.4768219 C171.91074182 -0.6070486 187.01918916 0.8609814 199.875 8 C200.52339844 8.33 201.17179688 8.66 201.83984375 9 C205.64120246 10.99825016 207.88397996 12.88397996 211 16 C182.95 15.67 154.9 15.34 126 15 C126 10.38 126 5.76 126 1 C84.75 1 43.5 1 1 1 C1 47.86 1 94.72 1 143 C57.1 143 113.2 143 171 143 C171 143.33 171 143.66 171 144 C166.61465517 144.84251804 162.47718762 145.12365083 158.01443481 145.12025452 C157.33552213 145.12110894 156.65660944 145.12196337 155.95712364 145.12284368 C153.69550951 145.12448313 151.43397051 145.1190024 149.17236328 145.11352539 C147.5458832 145.11324316 145.91940298 145.11340195 144.29292297 145.1139679 C139.88638281 145.11425447 135.47986995 145.10838025 131.07333612 145.10139394 C126.46489761 145.09513722 121.85645846 145.09455476 117.24801636 145.09336853 C108.5252574 145.09026206 99.802511 145.08205787 91.07975757 145.07201904 C79.28988305 145.05874523 67.50000508 145.05335247 55.71012497 145.04751682 C37.14007391 145.03811754 18.57004934 145.01819404 0 145 C0 97.15 0 49.3 0 0 Z " fill="#1F417D" transform="translate(389,316)"/>
<path d="M0 0 C0.33 0 0.66 0 1 0 C1 39.6 1 79.2 1 120 C15.52 120 30.04 120 45 120 C45 120.33 45 120.66 45 121 C35.01400048 121.86348036 25.14848342 122.12592556 15.125 122.0625 C10.46375 122.041875 5.8025 122.02125 1 122 C1 140.48 1 158.96 1 178 C63.04 178 125.08 178 189 178 C189 178.33 189 178.66 189 179 C106.5 179 24 179 -61 179 C-61 178.67 -61 178.34 -61 178 C-41.2 178 -21.4 178 -1 178 C-1 159.52 -1 141.04 -1 122 C-63.04 122 -125.08 122 -189 122 C-188.505 121.01 -188.505 121.01 -188 120 C-126.29 120 -64.58 120 -1 120 C-1.03961924 80.88195118 -1.03961924 80.88195118 -1.09008789 41.76391602 C-1.09460449 34.21472168 -1.09460449 34.21472168 -1.09544373 30.68565369 C-1.09698383 28.20986247 -1.10051009 25.73407203 -1.10557556 23.25828552 C-1.11284867 19.5179615 -1.11390757 15.7776835 -1.11352539 12.03735352 C-1.1171235 10.9261165 -1.12072161 9.81487947 -1.12442875 8.66996861 C-1.12305125 7.66940402 -1.12167376 6.66883944 -1.12025452 5.63795471 C-1.12163721 4.32301702 -1.12163721 4.32301702 -1.12304783 2.98151493 C-1 1 -1 1 0 0 Z " fill="#476DAB" transform="translate(336,30)"/>
<path d="M0 0 C0.99 0 1.98 0 3 0 C3 4.62 3 9.24 3 14 C4.03094788 13.99555878 5.06189575 13.99111755 6.12408447 13.98654175 C15.8354802 13.94601435 25.54685878 13.91602457 35.25831985 13.89637566 C40.25118787 13.88593441 45.24398766 13.87176893 50.23681641 13.84912109 C55.05434592 13.82740495 59.87180978 13.81543394 64.68938446 13.81024551 C66.52820621 13.80654756 68.36702434 13.79932646 70.20581818 13.78853989 C72.77954399 13.77404133 75.35299779 13.77202137 77.92675781 13.77294922 C78.68848801 13.76575867 79.4502182 13.75856812 80.23503113 13.75115967 C83.98048242 13.7657894 86.82216898 13.90511662 90 16 C88.2120694 17.7879306 85.80241742 17.1198974 83.42249203 17.12442875 C82.62041097 17.12083064 81.81832991 17.11723253 80.99194336 17.11352539 C80.13937486 17.11364593 79.28680635 17.11376646 78.40840244 17.11389065 C75.63552344 17.11314141 72.8627108 17.10551268 70.08984375 17.09765625 C68.38317904 17.09618687 66.67651388 17.09516613 64.96984863 17.09460449 C58.62572557 17.08935121 52.28161214 17.07539013 45.9375 17.0625 C31.768125 17.041875 17.59875 17.02125 3 17 C3 58.25 3 99.5 3 142 C2.01 142 1.02 142 0 142 C0 100.75 0 59.5 0 17 C-40.26 17 -80.52 17 -122 17 C-122 16.01 -122 15.02 -122 14 C-81.74 14 -41.48 14 0 14 C0 9.38 0 4.76 0 0 Z " fill="#315CA1" transform="translate(512,317)"/>
<path d="M0 0 C0.99 0 1.98 0 3 0 C3 39.6 3 79.2 3 120 C40.62 120 78.24 120 117 120 C117 120.66 117 121.32 117 122 C79.38 122 41.76 122 3 122 C3 131.57 3 141.14 3 151 C2.01 151 1.02 151 0 151 C0 141.43 0 131.86 0 122 C-40.59 122 -81.18 122 -123 122 C-123 121.34 -123 120.68 -123 120 C-111.26206509 119.86764088 -99.52411096 119.73714487 -87.78613091 119.60884857 C-82.33218263 119.54918211 -76.87824215 119.48893974 -71.42431641 119.42724609 C-47.28216036 119.15456899 -23.14401093 118.90316324 1 119 C0.8934182 117.13484489 0.8934182 117.13484489 0.78468323 115.23200989 C0.04953885 101.64853459 -0.13286623 88.11262637 -0.09765625 74.51171875 C-0.09578471 72.34454888 -0.0943643 70.17737858 -0.09336853 68.01020813 C-0.08960121 62.38311537 -0.07982242 56.75604959 -0.06866455 51.12896729 C-0.05832398 45.35616419 -0.05384418 39.58335662 -0.04882812 33.81054688 C-0.03819324 22.54035292 -0.02118897 11.27017872 0 0 Z " fill="#325EA5" transform="translate(512,564)"/>
<path d="M0 0 C0.99 0.33 1.98 0.66 3 1 C3 2.98 3 4.96 3 7 C3.66 6.67 4.32 6.34 5 6 C7.456042 5.90456136 9.88355495 5.86983319 12.3397522 5.87974548 C13.48775191 5.87846385 13.48775191 5.87846385 14.65894353 5.87715632 C17.23700791 5.87550226 19.81500797 5.88102168 22.39306641 5.88647461 C24.2357025 5.88675652 26.0783387 5.88659867 27.92097473 5.8860321 C32.93516897 5.88574429 37.94933946 5.8916384 42.96352816 5.89860606 C48.19926617 5.90484231 53.43500469 5.90544361 58.67074585 5.90663147 C68.59069696 5.90974398 78.51063709 5.9179563 88.43058336 5.92798096 C99.72182818 5.93914457 111.01307352 5.94465317 122.30432248 5.94967639 C145.53622108 5.96013897 168.76810993 5.97773688 192 6 C192 6.33 192 6.66 192 7 C178.8 7.33 165.6 7.66 152 8 C152 8.33 152 8.66 152 9 C102.83 9 53.66 9 3 9 C3 11.31 3 13.62 3 16 C-1.8274799 14.58707905 -5.7162359 12.57025846 -10 10 C-10 8 -10 8 -8 6 C-5.39262861 3.86061834 -2.80816992 1.87211328 0 0 Z " fill="#335FA6" transform="translate(686,495)"/>
<path d="M0 0 C27.06 0 54.12 0 82 0 C81.67 0.99 81.34 1.98 81 3 C53.94 3 26.88 3 -1 3 C-0.67 2.01 -0.34 1.02 0 0 Z " fill="#315CA1" transform="translate(32,331)"/>
<path d="M0 0 C0.99 0.33 1.98 0.66 3 1 C3 2.98 3 4.96 3 7 C3.66 6.67 4.32 6.34 5 6 C6.40648463 5.90823316 7.81724095 5.87806353 9.22671509 5.87974548 C10.11295059 5.87837082 10.9991861 5.87699615 11.91227722 5.87557983 C12.88691422 5.87917511 13.86155121 5.88277039 14.86572266 5.88647461 C16.4023481 5.88625557 16.4023481 5.88625557 17.97001648 5.8860321 C21.3680531 5.88673074 24.76603542 5.89452089 28.1640625 5.90234375 C30.51532969 5.9042081 32.86659727 5.90563192 35.21786499 5.90663147 C41.41570095 5.91045529 47.6135136 5.92028444 53.81134033 5.93133545 C60.13203618 5.94155247 66.45273578 5.94612972 72.7734375 5.95117188 C85.18230193 5.96190681 97.59114903 5.97898162 110 6 C110 6.33 110 6.66 110 7 C108.7184906 7.01030746 107.4369812 7.02061493 106.11663818 7.03123474 C94.05059685 7.12891205 81.98460775 7.23164082 69.91865158 7.33933926 C63.71515432 7.39454749 57.51165232 7.44796423 51.30810547 7.49731445 C45.32344681 7.54498883 39.33884569 7.59733292 33.35425568 7.65294075 C31.06888508 7.67335033 28.78349872 7.69206573 26.49810028 7.70907402 C23.30173535 7.73314878 20.10547907 7.7631994 16.90917969 7.79467773 C15.96043472 7.8004332 15.01168976 7.80618866 14.03419495 7.81211853 C12.72596016 7.82680176 12.72596016 7.82680176 11.39129639 7.84178162 C10.63542614 7.84823417 9.87955589 7.85468672 9.10078049 7.8613348 C6.96036881 8.00261592 5.05974297 8.41496512 3 9 C3 11.31 3 13.62 3 16 C-1.8274799 14.58707905 -5.7162359 12.57025846 -10 10 C-10 8 -10 8 -8 6 C-5.39262861 3.86061834 -2.80816992 1.87211328 0 0 Z " fill="#2D5799" transform="translate(686,495)"/>
<path d="M0 0 C0.33 0 0.66 0 1 0 C1.33 4.95 1.66 9.9 2 15 C2.33 15 2.66 15 3 15 C3 34.14 3 53.28 3 73 C2.67 73 2.34 73 2 73 C1.67 77.62 1.34 82.24 1 87 C0.67 87 0.34 87 0 87 C0 58.29 0 29.58 0 0 Z " fill="#2F599C" transform="translate(142,504)"/>
<path d="M0 0 C26.07 0 52.14 0 79 0 C79 0.99 79 1.98 79 3 C62.17 3 45.34 3 28 3 C28 2.67 28 2.34 28 2 C14.14 1.505 14.14 1.505 0 1 C0 0.67 0 0.34 0 0 Z " fill="#305B9E" transform="translate(191,683)"/>
<path d="M0 0 C0.99 0 1.98 0 3 0 C3 13.53 3 27.06 3 41 C2.67 41 2.34 41 2 41 C1.67 59.81 1.34 78.62 1 98 C0.67 98 0.34 98 0 98 C0 65.66 0 33.32 0 0 Z " fill="#2E5797" transform="translate(512,564)"/>
<path d="M0 0 C26.73 0 53.46 0 81 0 C81 0.33 81 0.66 81 1 C67.8 1.33 54.6 1.66 41 2 C41 2.33 41 2.66 41 3 C30.11 3 19.22 3 8 3 C8 2.67 8 2.34 8 2 C5.36 1.67 2.72 1.34 0 1 C0 0.67 0 0.34 0 0 Z " fill="#305A9E" transform="translate(797,501)"/>
<path d="M0 0 C3 3 3 3 3.36076355 5.86637878 C3.35410172 7.03219986 3.34743988 8.19802094 3.34057617 9.39916992 C3.34123329 10.36543053 3.34123329 10.36543053 3.34190369 11.35121155 C3.33981559 13.47794021 3.31648513 15.60387802 3.29296875 17.73046875 C3.28737283 19.20591298 3.28310271 20.68136278 3.28010559 22.15681458 C3.26865637 26.03839534 3.23918887 29.91963883 3.20599365 33.80108643 C3.17529424 37.76252683 3.16160055 41.72402178 3.14648438 45.68554688 C3.11431894 53.45718494 3.06312205 61.22854519 3 69 C2.67 69 2.34 69 2 69 C1.67 59.76 1.34 50.52 1 41 C0.67 41 0.34 41 0 41 C0 27.47 0 13.94 0 0 Z " fill="#305A9D" transform="translate(878,153)"/>
<path d="M0 0 C16.5 0 33 0 50 0 C50 0.33 50 0.66 50 1 C45.38 1.33 40.76 1.66 36 2 C36 2.33 36 2.66 36 3 C24.12 3 12.24 3 0 3 C0 2.01 0 1.02 0 0 Z " fill="#2F599C" transform="translate(761,683)"/>
<path d="M0 0 C0 0.33 0 0.66 0 1 C-13.42106957 1.7413191 -26.60048411 2.28083608 -40 1 C-40 0.67 -40 0.34 -40 0 C-26.65524714 -1.77930038 -13.38733421 -0.78419531 0 0 Z " fill="#3360A8" transform="translate(408,870)"/>
<path d="M0 0 C-0.99 0.33 -1.98 0.66 -3 1 C-0.32401709 4.13969114 3.08594296 5.81843627 6.6875 7.6875 C7.29400391 8.00783203 7.90050781 8.32816406 8.52539062 8.65820312 C10.01434566 9.44371484 11.50683047 10.22252942 13 11 C12.01 11.495 12.01 11.495 11 12 C9.02880859 11.28735352 9.02880859 11.28735352 6.6484375 10.12890625 C5.79765625 9.71962891 4.946875 9.31035156 4.0703125 8.88867188 C3.18085937 8.45103516 2.29140625 8.01339844 1.375 7.5625 C0.4778125 7.12873047 -0.419375 6.69496094 -1.34375 6.24804688 C-3.56602245 5.17237245 -5.78445719 4.08945069 -8 3 C-7 1 -7 1 -4.5625 -0.1875 C-2 -1 -2 -1 0 0 Z " fill="#133579" transform="translate(679,502)"/>
<path d="M0 0 C3.3 0 6.6 0 10 0 C10 1.98 10 3.96 10 6 C6.7 4.35 3.4 2.7 0 1 C0 0.67 0 0.34 0 0 Z " fill="#234A83" transform="translate(676,504)"/>
<path d="M0 0 C7.26 0 14.52 0 22 0 C22 0.33 22 0.66 22 1 C18.7 1 15.4 1 12 1 C12 1.66 12 2.32 12 3 C11.505 2.855625 11.01 2.71125 10.5 2.5625 C7.02247078 1.78005593 3.54044877 1.41305236 0 1 C0 0.67 0 0.34 0 0 Z " fill="#2F589A" transform="translate(797,501)"/>
<path d="M0 0 C0.66 0.33 1.32 0.66 2 1 C1.67 2.32 1.34 3.64 1 5 C-0.98 5 -2.96 5 -5 5 C-5 4.34 -5 3.68 -5 3 C-2.625 1.3125 -2.625 1.3125 0 0 Z " fill="#1D3E79" transform="translate(685,496)"/>
</svg>
